<?xml version="1.0" encoding="UTF-8" standalone="no"?><svg xmlns="http://www.w3.org/2000/svg" xmlns:xlink="http://www.w3.org/1999/xlink" contentScriptType="application/ecmascript" contentStyleType="text/css" height="1464px" preserveAspectRatio="none" style="width:1312px;height:1464px;background:#FFFFFF;" version="1.1" viewBox="0 0 1312 1464" width="1312px" zoomAndPan="magnify"><defs><filter height="300%" id="f8ytz34iull8m" width="300%" x="-1" y="-1"><feGaussianBlur result="blurOut" stdDeviation="2.0"/><feColorMatrix in="blurOut" result="blurOut2" type="matrix" values="0 0 0 0 0 0 0 0 0 0 0 0 0 0 0 0 0 0 .4 0"/><feOffset dx="4.0" dy="4.0" in="blurOut2" result="blurOut3"/><feBlend in="SourceGraphic" in2="blurOut3" mode="normal"/></filter></defs><g><!--MD5=[354055cd6488b9b338c7e270d264712e]
cluster Extensão (VS Code) - Covering--><rect fill="#FFFFFF" filter="url(#f8ytz34iull8m)" height="1445" style="stroke:#000000;stroke-width:1.5;" width="1090" x="210" y="7"/><text fill="#000000" font-family="sans-serif" font-size="14" font-weight="bold" lengthAdjust="spacing" textLength="216" x="647" y="23.5332">Extensão (VS Code) - Covering</text><ellipse cx="458.1285" cy="95.8068" fill="#D3D3D3" filter="url(#f8ytz34iull8m)" rx="145.1285" ry="52.8068" style="stroke:#000000;stroke-width:1.5;"/><text fill="#000000" font-family="sans-serif" font-size="14" lengthAdjust="spacing" textLength="35" x="440.6285" y="73.1213">UC01</text><text fill="#000000" font-family="sans-serif" font-size="14" lengthAdjust="spacing" textLength="129" x="395.6285" y="90.7307">Abrir a aba no menu</text><text fill="#000000" font-family="sans-serif" font-size="14" lengthAdjust="spacing" textLength="181" x="367.6285" y="108.34">lateral do VS Code referente</text><text fill="#000000" font-family="sans-serif" font-size="14" lengthAdjust="spacing" textLength="69" x="425.6285" y="125.9494">à extensão</text><ellipse cx="458.0635" cy="224.8551" fill="#D3D3D3" filter="url(#f8ytz34iull8m)" rx="158.5635" ry="40.3551" style="stroke:#000000;stroke-width:1.5;"/><text fill="#000000" font-family="sans-serif" font-size="14" lengthAdjust="spacing" textLength="35" x="440.5635" y="210.9743">UC02</text><text fill="#000000" font-family="sans-serif" font-size="14" lengthAdjust="spacing" textLength="204" x="358.0635" y="228.5836">Alternar a visualização do status</text><text fill="#000000" font-family="sans-serif" font-size="14" lengthAdjust="spacing" textLength="145" x="387.5635" y="246.193">de cada linha no editor</text><ellipse cx="457.8833" cy="353.8068" fill="#D3D3D3" filter="url(#f8ytz34iull8m)" rx="190.3833" ry="52.8068" style="stroke:#000000;stroke-width:1.5;"/><text fill="#000000" font-family="sans-serif" font-size="14" lengthAdjust="spacing" textLength="35" x="440.3833" y="331.1213">UC03</text><text fill="#000000" font-family="sans-serif" font-size="14" lengthAdjust="spacing" textLength="249" x="335.3833" y="348.7307">Alternar a visualização da porcentagem</text><text fill="#000000" font-family="sans-serif" font-size="14" lengthAdjust="spacing" textLength="161" x="377.3833" y="366.34">de cobertura entre total e</text><text fill="#000000" font-family="sans-serif" font-size="14" lengthAdjust="spacing" textLength="186" x="366.8833" y="383.9494">em relação ao arquivo aberto</text><ellipse cx="457.8833" cy="520.2103" fill="#D3D3D3" filter="url(#f8ytz34iull8m)" rx="190.3833" ry="77.7103" style="stroke:#000000;stroke-width:1.5;"/><text fill="#000000" font-family="sans-serif" font-size="14" lengthAdjust="spacing" textLength="35" x="440.3833" y="479.9153">UC04</text><text fill="#000000" font-family="sans-serif" font-size="14" lengthAdjust="spacing" textLength="249" x="335.3833" y="497.5247">Alternar a visualização da porcentagem</text><text fill="#000000" font-family="sans-serif" font-size="14" lengthAdjust="spacing" textLength="209" x="353.3833" y="515.1341">de cobertura entre somente para</text><text fill="#000000" font-family="sans-serif" font-size="14" lengthAdjust="spacing" textLength="181" x="367.3833" y="532.7435">as linhas criadas e alteradas</text><text fill="#000000" font-family="sans-serif" font-size="14" lengthAdjust="spacing" textLength="144" x="385.8833" y="550.3528">na branch atual e para</text><text fill="#000000" font-family="sans-serif" font-size="14" lengthAdjust="spacing" textLength="86" x="416.8833" y="567.9622">todo o código</text><ellipse cx="458.1137" cy="672.8551" fill="#D3D3D3" filter="url(#f8ytz34iull8m)" rx="153.6137" ry="40.3551" style="stroke:#000000;stroke-width:1.5;"/><text fill="#000000" font-family="sans-serif" font-size="14" lengthAdjust="spacing" textLength="35" x="440.6137" y="658.9743">UC05</text><text fill="#000000" font-family="sans-serif" font-size="14" lengthAdjust="spacing" textLength="197" x="361.6137" y="676.5836">Solicitar geração do arquivo de</text><text fill="#000000" font-family="sans-serif" font-size="14" lengthAdjust="spacing" textLength="82" x="419.1137" y="694.193">configuração</text><ellipse cx="457.9863" cy="788.8551" fill="#D3D3D3" filter="url(#f8ytz34iull8m)" rx="130.9863" ry="40.3551" style="stroke:#000000;stroke-width:1.5;"/><text fill="#000000" font-family="sans-serif" font-size="14" lengthAdjust="spacing" textLength="35" x="440.4863" y="774.9743">UC06</text><text fill="#000000" font-family="sans-serif" font-size="14" lengthAdjust="spacing" textLength="145" x="387.4863" y="792.5836">Criar na raiz do projeto</text><text fill="#000000" font-family="sans-serif" font-size="14" lengthAdjust="spacing" textLength="165" x="377.4863" y="810.193">o arquivo de configuração</text><ellipse cx="457.9777" cy="904.8551" fill="#D3D3D3" filter="url(#f8ytz34iull8m)" rx="159.9777" ry="40.3551" style="stroke:#000000;stroke-width:1.5;"/><text fill="#000000" font-family="sans-serif" font-size="14" lengthAdjust="spacing" textLength="35" x="440.4777" y="890.9743">UC07</text><text fill="#000000" font-family="sans-serif" font-size="14" lengthAdjust="spacing" textLength="206" x="356.9777" y="908.5836">Editar o arquivo de configuração</text><text fill="#000000" font-family="sans-serif" font-size="14" lengthAdjust="spacing" textLength="110" x="404.9777" y="926.193">na raiz do projeto</text><ellipse cx="1103.1909" cy="712.8551" fill="#D3D3D3" filter="url(#f8ytz34iull8m)" rx="181.1909" ry="40.3551" style="stroke:#000000;stroke-width:1.5;"/><text fill="#000000" font-family="sans-serif" font-size="14" lengthAdjust="spacing" textLength="35" x="1085.6909" y="698.9743">UC08</text><text fill="#000000" font-family="sans-serif" font-size="14" lengthAdjust="spacing" textLength="236" x="987.1909" y="716.5836">Adicionar ao arquivo de configuração</text><text fill="#000000" font-family="sans-serif" font-size="14" lengthAdjust="spacing" textLength="144" x="1033.1909" y="734.193">a branch de referência</text><ellipse cx="1103.1909" cy="970.8551" fill="#D3D3D3" filter="url(#f8ytz34iull8m)" rx="181.1909" ry="40.3551" style="stroke:#000000;stroke-width:1.5;"/><text fill="#000000" font-family="sans-serif" font-size="14" lengthAdjust="spacing" textLength="35" x="1085.6909" y="956.9743">UC09</text><text fill="#000000" font-family="sans-serif" font-size="14" lengthAdjust="spacing" textLength="236" x="987.1909" y="974.5836">Adicionar ao arquivo de configuração</text><text fill="#000000" font-family="sans-serif" font-size="14" lengthAdjust="spacing" textLength="187" x="1011.6909" y="992.193">um valor mínimo de cobertura</text><ellipse cx="1103.1909" cy="841.8068" fill="#D3D3D3" filter="url(#f8ytz34iull8m)" rx="181.1909" ry="52.8068" style="stroke:#000000;stroke-width:1.5;"/><text fill="#000000" font-family="sans-serif" font-size="14" lengthAdjust="spacing" textLength="35" x="1085.6909" y="819.1213">UC10</text><text fill="#000000" font-family="sans-serif" font-size="14" lengthAdjust="spacing" textLength="236" x="987.1909" y="836.7307">Adicionar ao arquivo de configuração</text><text fill="#000000" font-family="sans-serif" font-size="14" lengthAdjust="spacing" textLength="161" x="1022.6909" y="854.34">o caminho para o arquivo</text><text fill="#000000" font-family="sans-serif" font-size="14" lengthAdjust="spacing" textLength="157" x="1026.6909" y="871.9494">de relatório de cobertura</text><ellipse cx="1103.1909" cy="1099.8068" fill="#D3D3D3" filter="url(#f8ytz34iull8m)" rx="181.1909" ry="52.8068" style="stroke:#000000;stroke-width:1.5;"/><text fill="#000000" font-family="sans-serif" font-size="14" lengthAdjust="spacing" textLength="35" x="1085.6909" y="1077.1213">UC11</text><text fill="#000000" font-family="sans-serif" font-size="14" lengthAdjust="spacing" textLength="236" x="987.1909" y="1094.7307">Adicionar ao arquivo de configuração</text><text fill="#000000" font-family="sans-serif" font-size="14" lengthAdjust="spacing" textLength="205" x="1000.6909" y="1112.34">um comando para execução dos</text><text fill="#000000" font-family="sans-serif" font-size="14" lengthAdjust="spacing" textLength="38" x="1086.1909" y="1129.9494">testes</text><ellipse cx="1103.1909" cy="1266.2103" fill="#D3D3D3" filter="url(#f8ytz34iull8m)" rx="181.1909" ry="77.7103" style="stroke:#000000;stroke-width:1.5;"/><text fill="#000000" font-family="sans-serif" font-size="14" lengthAdjust="spacing" textLength="35" x="1085.6909" y="1225.9153">UC12</text><text fill="#000000" font-family="sans-serif" font-size="14" lengthAdjust="spacing" textLength="236" x="987.1909" y="1243.5247">Adicionar ao arquivo de configuração</text><text fill="#000000" font-family="sans-serif" font-size="14" lengthAdjust="spacing" textLength="205" x="1000.6909" y="1261.1341">um comando para execução dos</text><text fill="#000000" font-family="sans-serif" font-size="14" lengthAdjust="spacing" textLength="225" x="990.6909" y="1278.7435">testes em modo de recarregamento</text><text fill="#000000" font-family="sans-serif" font-size="14" lengthAdjust="spacing" textLength="212" x="997.1909" y="1296.3528">automático após edição de algum</text><text fill="#000000" font-family="sans-serif" font-size="14" lengthAdjust="spacing" textLength="47" x="1081.6909" y="1313.9622">arquivo</text><ellipse cx="457.963" cy="1020.8551" fill="#D3D3D3" filter="url(#f8ytz34iull8m)" rx="168.463" ry="40.3551" style="stroke:#000000;stroke-width:1.5;"/><text fill="#000000" font-family="sans-serif" font-size="14" lengthAdjust="spacing" textLength="35" x="440.463" y="1006.9743">UC13</text><text fill="#000000" font-family="sans-serif" font-size="14" lengthAdjust="spacing" textLength="218" x="350.963" y="1024.5836">Selecionar uma das linhas listadas</text><text fill="#000000" font-family="sans-serif" font-size="14" lengthAdjust="spacing" textLength="129" x="395.463" y="1042.193">como sem cobertura</text><ellipse cx="457.8269" cy="1136.8551" fill="#D3D3D3" filter="url(#f8ytz34iull8m)" rx="174.8269" ry="40.3551" style="stroke:#000000;stroke-width:1.5;"/><text fill="#000000" font-family="sans-serif" font-size="14" lengthAdjust="spacing" textLength="35" x="440.3269" y="1122.9743">UC14</text><text fill="#000000" font-family="sans-serif" font-size="14" lengthAdjust="spacing" textLength="227" x="346.3269" y="1140.5836">Executar testes através da interface</text><text fill="#000000" font-family="sans-serif" font-size="14" lengthAdjust="spacing" textLength="77" x="421.3269" y="1158.193">da extensão</text><ellipse cx="458.1026" cy="1265.8068" fill="#D3D3D3" filter="url(#f8ytz34iull8m)" rx="232.1026" ry="52.8068" style="stroke:#000000;stroke-width:1.5;"/><text fill="#000000" font-family="sans-serif" font-size="14" lengthAdjust="spacing" textLength="35" x="440.6026" y="1243.1213">UC15</text><text fill="#000000" font-family="sans-serif" font-size="14" lengthAdjust="spacing" textLength="179" x="370.6026" y="1260.7307">Executar testes em modo de</text><text fill="#000000" font-family="sans-serif" font-size="14" lengthAdjust="spacing" textLength="304" x="306.1026" y="1278.34">recarregamento automático através da interface</text><text fill="#000000" font-family="sans-serif" font-size="14" lengthAdjust="spacing" textLength="77" x="421.6026" y="1295.9494">da extensão</text><ellipse cx="457.8417" cy="1394.8551" fill="#D3D3D3" filter="url(#f8ytz34iull8m)" rx="166.3417" ry="40.3551" style="stroke:#000000;stroke-width:1.5;"/><text fill="#000000" font-family="sans-serif" font-size="14" lengthAdjust="spacing" textLength="35" x="440.3417" y="1380.9743">UC16</text><text fill="#000000" font-family="sans-serif" font-size="14" lengthAdjust="spacing" textLength="215" x="352.3417" y="1398.5836">Recarregar os dados da extensão</text><text fill="#000000" font-family="sans-serif" font-size="14" lengthAdjust="spacing" textLength="0" x="459.8417" y="1416.193"/><!--MD5=[4166c2533998e538f16711cc7763c23c]
entity Dev--><ellipse cx="53.5" cy="757" fill="#FFFFFF" filter="url(#f8ytz34iull8m)" rx="8" ry="8" style="stroke:#808080;stroke-width:2.0;"/><path d="M53.5,765 L53.5,792 M40.5,773 L66.5,773 M53.5,792 L40.5,807 M53.5,792 L66.5,807 " fill="none" filter="url(#f8ytz34iull8m)" style="stroke:#808080;stroke-width:2.0;"/><text fill="#000000" font-family="sans-serif" font-size="14" lengthAdjust="spacing" textLength="95" x="6" y="827.5332">Desenvolvedor</text><!--MD5=[f550f7d400eeb68a21bb7ba7818a1006]
link Dev to UC01--><path d="M58.71,746.59 C72.14,620.07 118.06,249.03 202,167 C231.77,137.91 272.39,120.52 312.46,110.19 " fill="none" id="Dev-to-UC01" style="stroke:#000000;stroke-width:1.0;"/><polygon fill="#000000" points="317.34,108.96,307.6374,107.269,312.4901,110.176,309.5831,115.0288,317.34,108.96" style="stroke:#000000;stroke-width:1.0;"/><!--MD5=[ae4610af301800f46c975f4fb62d3b93]
link Dev to UC02--><path d="M61.03,746.65 C78.87,636.68 131.77,346.2 202,283 C228.7,258.97 263.25,244.26 298.24,235.39 " fill="none" id="Dev-to-UC02" style="stroke:#000000;stroke-width:1.0;"/><polygon fill="#000000" points="303.41,234.13,293.7181,232.3785,298.5526,235.3158,295.6154,240.1503,303.41,234.13" style="stroke:#000000;stroke-width:1.0;"/><!--MD5=[4edfcb15f14d2689dd380d576ce9bcd8]
link Dev to UC03--><path d="M59.45,746.99 C70.64,671.24 104.96,511.61 202,425 C224.94,404.52 253.32,389.9 282.71,379.47 " fill="none" id="Dev-to-UC03" style="stroke:#000000;stroke-width:1.0;"/><polygon fill="#000000" points="287.44,377.83,277.6257,377.0052,282.7169,379.4709,280.2512,384.5621,287.44,377.83" style="stroke:#000000;stroke-width:1.0;"/><!--MD5=[73811c78f98b3414f9ab5e645f1d1e17]
link Dev to UC04--><path d="M81.04,746.72 C107.45,707.71 151.28,650.61 202,615 C230.28,595.14 263.23,578.88 295.85,565.77 " fill="none" id="Dev-to-UC04" style="stroke:#000000;stroke-width:1.0;"/><polygon fill="#000000" points="300.66,563.86,290.8192,563.4625,296.0127,565.7046,293.7706,570.8982,300.66,563.86" style="stroke:#000000;stroke-width:1.0;"/><!--MD5=[cd97047f1b974c03197c3c2d7583cd21]
link Dev to UC05--><path d="M101.02,768.62 C129.74,756.56 167.55,741.62 202,731 C242.86,718.4 288.16,707.22 329.11,698.12 " fill="none" id="Dev-to-UC05" style="stroke:#000000;stroke-width:1.0;"/><polygon fill="#000000" points="334.08,697.02,324.4266,695.0676,329.1991,698.1047,326.162,702.8771,334.08,697.02" style="stroke:#000000;stroke-width:1.0;"/><!--MD5=[baad476171aa4b18990754da87e035f4]
link Dev to UC06--><path d="M101.07,789 C154.72,789 245.33,789 321.69,789 " fill="none" id="Dev-to-UC06" style="stroke:#000000;stroke-width:1.0;"/><polygon fill="#000000" points="326.7,789,317.7,785,321.7,789,317.7,793,326.7,789" style="stroke:#000000;stroke-width:1.0;"/><!--MD5=[01a5098ab1d0d81d52ca00a29328bf2d]
link Dev to UC07--><path d="M101.02,809.38 C129.74,821.44 167.55,836.38 202,847 C241.65,859.23 285.49,870.12 325.48,879.07 " fill="none" id="Dev-to-UC07" style="stroke:#000000;stroke-width:1.0;"/><polygon fill="#000000" points="330.84,880.26,322.9257,874.398,325.9597,879.1723,321.1854,882.2064,330.84,880.26" style="stroke:#000000;stroke-width:1.0;"/><!--MD5=[2ebddb04d3c9f5f0bd7522e3b5ca314f]
link UC07 to UC08--><path d="M575.46,877.46 C612.25,868.3 652.96,857.7 690,847 C794.24,816.88 818.81,804.53 922,771 C945.18,763.47 970.04,755.43 993.67,747.81 " fill="none" id="UC07-to-UC08" style="stroke:#000000;stroke-width:1.0;stroke-dasharray:7.0,7.0;"/><polygon fill="#000000" points="998.7,746.19,988.9078,745.135,993.9397,747.7196,991.3551,752.7515,998.7,746.19" style="stroke:#000000;stroke-width:1.0;"/><text fill="#000000" font-family="sans-serif" font-size="13" lengthAdjust="spacing" textLength="46" x="783" y="799.4951">extends</text><!--MD5=[5c761ef509868fc6756a381d551b3dfd]
link UC07 to UC09--><path d="M606.52,920.14 C703.87,930.13 831.68,943.25 933.11,953.66 " fill="none" id="UC07-to-UC09" style="stroke:#000000;stroke-width:1.0;stroke-dasharray:7.0,7.0;"/><polygon fill="#000000" points="938.22,954.19,929.6794,949.2851,933.2465,953.6755,928.8562,957.2427,938.22,954.19" style="stroke:#000000;stroke-width:1.0;"/><text fill="#000000" font-family="sans-serif" font-size="13" lengthAdjust="spacing" textLength="46" x="783" y="935.4951">extends</text><!--MD5=[a923cb3d861ed91c377f3297bb2d77ce]
link UC07 to UC10--><path d="M607.73,890.43 C702.66,881.13 826.19,869.02 926,859.24 " fill="none" id="UC07-to-UC10" style="stroke:#000000;stroke-width:1.0;stroke-dasharray:7.0,7.0;"/><polygon fill="#000000" points="931.04,858.75,921.6937,855.6441,926.0637,859.2362,922.4716,863.6062,931.04,858.75" style="stroke:#000000;stroke-width:1.0;"/><text fill="#000000" font-family="sans-serif" font-size="13" lengthAdjust="spacing" textLength="46" x="783" y="865.4951">extends</text><!--MD5=[5daf67820b4faa2a4f81669ff05ad57f]
link UC07 to UC11--><path d="M575.79,932.52 C612.5,941.65 653.08,952.24 690,963 C789.16,991.89 900.2,1029.1 982,1057.45 " fill="none" id="UC07-to-UC11" style="stroke:#000000;stroke-width:1.0;stroke-dasharray:7.0,7.0;"/><polygon fill="#000000" points="986.85,1059.13,979.6612,1052.3979,982.1269,1057.4891,977.0357,1059.9548,986.85,1059.13" style="stroke:#000000;stroke-width:1.0;"/><text fill="#000000" font-family="sans-serif" font-size="13" lengthAdjust="spacing" textLength="46" x="783" y="988.4951">extends</text><!--MD5=[93a28fb6fcec599cd6f864cdafbafa1b]
link UC07 to UC12--><path d="M604.3,921.51 C634.92,930.21 665.37,943.31 690,963 C760.8,1019.59 714.59,1084.41 782,1145 C825.42,1184.02 882.66,1210.92 936.72,1229.24 " fill="none" id="UC07-to-UC12" style="stroke:#000000;stroke-width:1.0;stroke-dasharray:7.0,7.0;"/><polygon fill="#000000" points="941.6,1230.88,934.3328,1224.2326,936.858,1229.2946,931.7961,1231.8198,941.6,1230.88" style="stroke:#000000;stroke-width:1.0;"/><text fill="#000000" font-family="sans-serif" font-size="13" lengthAdjust="spacing" textLength="46" x="783" y="1141.4951">extends</text><!--MD5=[30cbd28b32960e2170d4790c231da7ab]
link Dev to UC13--><path d="M79.04,831.32 C104.59,871.49 148.35,930.43 202,963 C231.87,981.13 266.83,993.61 301.11,1002.18 " fill="none" id="Dev-to-UC13" style="stroke:#000000;stroke-width:1.0;"/><polygon fill="#000000" points="306.17,1003.42,298.3921,997.3781,301.3159,1002.2208,296.4733,1005.1446,306.17,1003.42" style="stroke:#000000;stroke-width:1.0;"/><!--MD5=[df31a729803a8a644492b8162efff1d9]
link Dev to UC14--><path d="M63.82,831.06 C80.24,894.9 120.58,1015.55 202,1079 C227.41,1098.8 258.32,1112.08 289.74,1120.93 " fill="none" id="Dev-to-UC14" style="stroke:#000000;stroke-width:1.0;"/><polygon fill="#000000" points="294.78,1122.32,287.1512,1116.091,289.9565,1121.0032,285.0443,1123.8086,294.78,1122.32" style="stroke:#000000;stroke-width:1.0;"/><!--MD5=[eee79d3131584dbc0f71ffed8b97c901]
link Dev to UC15--><path d="M57.35,831.3 C65.25,913.78 94.57,1096.61 202,1195 C219.72,1211.23 240.83,1223.79 263.22,1233.5 " fill="none" id="Dev-to-UC15" style="stroke:#000000;stroke-width:1.0;"/><polygon fill="#000000" points="268.02,1235.53,261.3044,1228.3258,263.4191,1233.5725,258.1724,1235.6872,268.02,1235.53" style="stroke:#000000;stroke-width:1.0;"/><!--MD5=[901165f40959f6aff952005c627ca22d]
link UC14 to UC11--><path d="M627.94,1127.28 C717.78,1122.11 828.3,1115.75 920.03,1110.47 " fill="none" id="UC14-to-UC11" style="stroke:#000000;stroke-width:1.0;stroke-dasharray:7.0,7.0;"/><polygon fill="#000000" points="925.21,1110.17,915.9965,1106.69,920.2181,1110.4552,916.4529,1114.6769,925.21,1110.17" style="stroke:#000000;stroke-width:1.0;"/><text fill="#000000" font-family="sans-serif" font-size="13" lengthAdjust="spacing" textLength="41" x="785.5" y="1112.4951">include</text><!--MD5=[2625fffa67532a4e7b8d12fd44c62ff8]
link UC15 to UC12--><path d="M690.23,1266 C764.68,1266 846.16,1266 916.85,1266 " fill="none" id="UC15-to-UC12" style="stroke:#000000;stroke-width:1.0;stroke-dasharray:7.0,7.0;"/><polygon fill="#000000" points="921.92,1266,912.92,1262,916.92,1266,912.92,1270,921.92,1266" style="stroke:#000000;stroke-width:1.0;"/><text fill="#000000" font-family="sans-serif" font-size="13" lengthAdjust="spacing" textLength="41" x="785.5" y="1262.4951">include</text><!--MD5=[a7a54ae2fe6ac9359d154ccf10d379a2]
link Dev to UC16--><path d="M60.08,831.31 C76.24,947.31 126.76,1266.34 202,1336 C227.03,1359.17 259.3,1373.83 292.42,1382.97 " fill="none" id="Dev-to-UC16" style="stroke:#000000;stroke-width:1.0;"/><polygon fill="#000000" points="297.31,1384.28,289.6423,1378.0989,292.4784,1382.9935,287.5838,1385.8296,297.31,1384.28" style="stroke:#000000;stroke-width:1.0;"/><!--MD5=[eceb0f14a90bff658ba4ad053b1845a0]
@startuml

left to right direction
skinparam packageStyle rectangle

"Desenvolvedor" as Dev #white;line:grey;line.bold;text:black

package "Extensão (VS Code) - Covering" {
  "UC01\n Abrir a aba no menu\n lateral do VS Code referente \n à extensão" as (UC01) #LightGray;line:black;text:black
  
  "UC02\n Alternar a visualização do status\n de cada linha no editor" as (UC02) #LightGray;line:black;text:black
  "UC03\n Alternar a visualização da porcentagem\n de cobertura entre total e \n em relação ao arquivo aberto" as (UC03) #LightGray;line:black;text:black
  "UC04\n Alternar a visualização da porcentagem\n de cobertura entre somente para \n as linhas criadas e alteradas \n na branch atual e para \n todo o código" as (UC04) #LightGray;line:black;text:black
  
  "UC05\n Solicitar geração do arquivo de\n configuração" as (UC05) #LightGray;line:black;text:black
  "UC06\n Criar na raiz do projeto\n o arquivo de configuração" as (UC06) #LightGray;line:black;text:black
  "UC07\n Editar o arquivo de configuração\n na raiz do projeto" as (UC07) #LightGray;line:black;text:black
  
  "UC08\n Adicionar ao arquivo de configuração\n a branch de referência" as (UC08) #LightGray;line:black;text:black
  "UC09\n Adicionar ao arquivo de configuração\n um valor mínimo de cobertura" as (UC09) #LightGray;line:black;text:black
  "UC10\n Adicionar ao arquivo de configuração\n o caminho para o arquivo \n de relatório de cobertura" as (UC10) #LightGray;line:black;text:black
  "UC11\n Adicionar ao arquivo de configuração\n um comando para execução dos \n testes" as (UC11) #LightGray;line:black;text:black
  "UC12\n Adicionar ao arquivo de configuração\n um comando para execução dos \n testes em modo de recarregamento \n automático após edição de algum \n arquivo" as (UC12) #LightGray;line:black;text:black
  
  "UC13\n Selecionar uma das linhas listadas\n como sem cobertura" as (UC13) #LightGray;line:black;text:black

  "UC14\n Executar testes através da interface\n da extensão" as (UC14) #LightGray;line:black;text:black
  "UC15\n Executar testes em modo de\n recarregamento automático através da interface \n da extensão" as (UC15) #LightGray;line:black;text:black

  "UC16\n Recarregar os dados da extensão\n" as (UC16) #LightGray;line:black;text:black
}
 
Dev - - -> (UC01) #line:black

Dev - - -> (UC02) #line:black
Dev - - -> (UC03) #line:black
Dev - - -> (UC04) #line:black

Dev - - -> (UC05) #line:black
Dev - - -> (UC06) #line:black
Dev - - -> (UC07) #line:black

(UC07) ..down..> (UC08) #line:black : extends 
(UC07) ..down..> (UC09) #line:black : extends 
(UC07) ..down..> (UC10) #line:black : extends 
(UC07) ..down..> (UC11) #line:black : extends 
(UC07) ..down..> (UC12) #line:black : extends 
 
 
Dev - - -> (UC13) #line:black
 
Dev - - -> (UC14) #line:black
Dev - - -> (UC15) #line:black
(UC14) ..down..> (UC11) #line:black : include  
(UC15) ..down..> (UC12) #line:black : include 
 
Dev - - -> (UC16) #line:black
 
@enduml

PlantUML version 1.2022.0(Tue Jan 11 13:16:42 BRT 2022)
(GPL source distribution)
Java Runtime: Java(TM) SE Runtime Environment
JVM: Java HotSpot(TM) 64-Bit Server VM
Default Encoding: Cp1252
Language: pt
Country: BR
--></g></svg>