<?xml version="1.0" encoding="UTF-8" standalone="no"?><svg xmlns="http://www.w3.org/2000/svg" xmlns:xlink="http://www.w3.org/1999/xlink" contentScriptType="application/ecmascript" contentStyleType="text/css" height="1619px" preserveAspectRatio="none" style="width:2612px;height:1619px;background:#FFFFFF;" version="1.1" viewBox="0 0 2612 1619" width="2612px" zoomAndPan="magnify"><defs><filter height="300%" id="fk56dog930phu" width="300%" x="-1" y="-1"><feGaussianBlur result="blurOut" stdDeviation="2.0"/><feColorMatrix in="blurOut" result="blurOut2" type="matrix" values="0 0 0 0 0 0 0 0 0 0 0 0 0 0 0 0 0 0 .4 0"/><feOffset dx="4.0" dy="4.0" in="blurOut2" result="blurOut3"/><feBlend in="SourceGraphic" in2="blurOut3" mode="normal"/></filter></defs><g><!--MD5=[354055cd6488b9b338c7e270d264712e]
cluster Extensão (VS Code) - Covering--><rect fill="#FFFFFF" filter="url(#fk56dog930phu)" height="1600" style="stroke:#000000;stroke-width:1.5;" width="2381" x="219" y="7"/><text fill="#000000" font-family="sans-serif" font-size="14" font-weight="bold" lengthAdjust="spacing" textLength="243" x="1288" y="21.9951">Extensão (VS Code) - Covering</text><ellipse cx="745.0056" cy="93.2011" fill="#D3D3D3" filter="url(#fk56dog930phu)" rx="241.5056" ry="50.7011" style="stroke:#000000;stroke-width:1.5;"/><text fill="#000000" font-family="sans-serif" font-size="14" lengthAdjust="spacing" textLength="458" x="516.0056" y="96.0478">UC01 Abrir a aba no menu lateral do VS Code referente à extensão</text><ellipse cx="744.783" cy="225.7566" fill="#D3D3D3" filter="url(#fk56dog930phu)" rx="224.283" ry="47.2566" style="stroke:#000000;stroke-width:1.5;"/><text fill="#000000" font-family="sans-serif" font-size="14" lengthAdjust="spacing" textLength="423" x="533.283" y="228.6033">UC02 Alternar a visualização do status de cada linha no editor</text><ellipse cx="744.8368" cy="382.7674" fill="#D3D3D3" filter="url(#fk56dog930phu)" rx="359.3368" ry="74.2674" style="stroke:#000000;stroke-width:1.5;"/><text fill="#000000" font-family="sans-serif" font-size="14" lengthAdjust="spacing" textLength="696" x="396.8368" y="385.614">UC03 Alternar a visualização da porcentagem de cobertura entre total e em relação ao arquivo aberto</text><ellipse cx="745.1392" cy="596.9278" fill="#D3D3D3" filter="url(#fk56dog930phu)" rx="510.1392" ry="104.4278" style="stroke:#000000;stroke-width:1.5;"/><text fill="#000000" font-family="sans-serif" font-size="14" lengthAdjust="spacing" textLength="999" x="245.6392" y="599.7745">UC04 Alternar a visualização da porcentagem de cobertura entre somente para as linhas criadas e alteradas na branch atual e para todo o código</text><ellipse cx="745.0781" cy="776.2156" fill="#D3D3D3" filter="url(#fk56dog930phu)" rx="186.5781" ry="39.7156" style="stroke:#000000;stroke-width:1.5;"/><text fill="#000000" font-family="sans-serif" font-size="14" lengthAdjust="spacing" textLength="346" x="572.0781" y="779.0623">UC05 Solicitar geração do arquivo de configuração</text><ellipse cx="745.2002" cy="893.94" fill="#D3D3D3" filter="url(#fk56dog930phu)" rx="202.7002" ry="42.94" style="stroke:#000000;stroke-width:1.5;"/><text fill="#000000" font-family="sans-serif" font-size="14" lengthAdjust="spacing" textLength="379" x="555.7002" y="896.7867">UC06 Criar na raiz do projeto o arquivo de configuração</text><ellipse cx="745.1177" cy="1016.2235" fill="#D3D3D3" filter="url(#fk56dog930phu)" rx="206.6177" ry="43.7235" style="stroke:#000000;stroke-width:1.5;"/><text fill="#000000" font-family="sans-serif" font-size="14" lengthAdjust="spacing" textLength="387" x="551.6177" y="1019.0702">UC07 Editar o arquivo de configuração na raiz do projeto</text><ellipse cx="2038.0353" cy="741.8071" fill="#D3D3D3" filter="url(#fk56dog930phu)" rx="239.5353" ry="50.3071" style="stroke:#000000;stroke-width:1.5;"/><text fill="#000000" font-family="sans-serif" font-size="14" lengthAdjust="spacing" textLength="454" x="1811.0353" y="744.6537">UC08 Adicionar ao arquivo de configuração a branch de referência</text><ellipse cx="2038.1971" cy="1057.2394" fill="#D3D3D3" filter="url(#fk56dog930phu)" rx="264.1971" ry="55.2394" style="stroke:#000000;stroke-width:1.5;"/><text fill="#000000" font-family="sans-serif" font-size="14" lengthAdjust="spacing" textLength="504" x="1786.1971" y="1060.0861">UC09 Adicionar ao arquivo de configuração um valor mínimo de cobertura</text><ellipse cx="2038.0093" cy="896.9019" fill="#D3D3D3" filter="url(#fk56dog930phu)" rx="335.0093" ry="69.4019" style="stroke:#000000;stroke-width:1.5;"/><text fill="#000000" font-family="sans-serif" font-size="14" lengthAdjust="spacing" textLength="647" x="1714.5093" y="899.7485">UC10 Adicionar ao arquivo de configuração o caminho para o arquivo de relatório de cobertura</text><ellipse cx="2037.8238" cy="1209.0648" fill="#D3D3D3" filter="url(#fk56dog930phu)" rx="298.3238" ry="62.0648" style="stroke:#000000;stroke-width:1.5;"/><text fill="#000000" font-family="sans-serif" font-size="14" lengthAdjust="spacing" textLength="573" x="1751.3238" y="1211.9114">UC11 Adicionar ao arquivo de configuração um comando para execução dos testes</text><ellipse cx="2038.0305" cy="1418.1061" fill="#D3D3D3" filter="url(#fk56dog930phu)" rx="546.0305" ry="111.6061" style="stroke:#000000;stroke-width:1.5;"/><text fill="#000000" font-family="sans-serif" font-size="14" lengthAdjust="spacing" textLength="1071" x="1502.5305" y="1420.9528">UC12 Adicionar ao arquivo de configuração um comando para execução dos testes em modo de recarregamento automático após edição de algum arquivo</text><ellipse cx="744.766" cy="1141.9532" fill="#D3D3D3" filter="url(#fk56dog930phu)" rx="225.266" ry="47.4532" style="stroke:#000000;stroke-width:1.5;"/><text fill="#000000" font-family="sans-serif" font-size="14" lengthAdjust="spacing" textLength="425" x="532.266" y="1144.7999">UC13 Selecionar uma das linhas listadas como sem cobertura</text><ellipse cx="745.2108" cy="1267.8422" fill="#D3D3D3" filter="url(#fk56dog930phu)" rx="202.2108" ry="42.8422" style="stroke:#000000;stroke-width:1.5;"/><text fill="#000000" font-family="sans-serif" font-size="14" lengthAdjust="spacing" textLength="378" x="556.2108" y="1270.6888">UC14 Executar testes através da interface da extensão</text><ellipse cx="744.9395" cy="1417.7879" fill="#D3D3D3" filter="url(#fk56dog930phu)" rx="344.4395" ry="71.2879" style="stroke:#000000;stroke-width:1.5;"/><text fill="#000000" font-family="sans-serif" font-size="14" lengthAdjust="spacing" textLength="666" x="411.9395" y="1420.6346">UC15 Executar testes em modo de recarregamento automático através da interface da extensão</text><ellipse cx="745.1716" cy="1557.8343" fill="#D3D3D3" filter="url(#fk56dog930phu)" rx="152.1716" ry="32.8343" style="stroke:#000000;stroke-width:1.5;"/><text fill="#000000" font-family="sans-serif" font-size="14" lengthAdjust="spacing" textLength="275" x="607.6716" y="1560.681">UC16 Recarregar os dados da extensão</text><!--MD5=[4166c2533998e538f16711cc7763c23c]
entity Dev--><ellipse cx="58" cy="863" fill="#FFFFFF" filter="url(#fk56dog930phu)" rx="8" ry="8" style="stroke:#808080;stroke-width:2.0;"/><path d="M58,871 L58,898 M45,879 L71,879 M58,898 L45,913 M58,898 L71,913 " fill="none" filter="url(#fk56dog930phu)" style="stroke:#808080;stroke-width:2.0;"/><text fill="#000000" font-family="sans-serif" font-size="14" lengthAdjust="spacing" textLength="104" x="6" y="931.9951">Desenvolvedor</text><!--MD5=[f550f7d400eeb68a21bb7ba7818a1006]
link Dev to UC01--><path d="M61.16,852.59 C69.46,711.35 104.36,252.26 211,161 C297.08,87.34 421.44,68.27 528.39,68.56 " fill="none" id="Dev-to-UC01" style="stroke:#000000;stroke-width:1.0;"/><polygon fill="#000000" points="533.47,68.59,524.493,64.5386,528.4701,68.5614,524.4473,72.5385,533.47,68.59" style="stroke:#000000;stroke-width:1.0;"/><!--MD5=[ae4610af301800f46c975f4fb62d3b93]
link Dev to UC02--><path d="M63.25,852.82 C76.9,729.15 123.91,365.03 211,291 C302.86,212.92 437.92,197.14 549.1,200.64 " fill="none" id="Dev-to-UC02" style="stroke:#000000;stroke-width:1.0;"/><polygon fill="#000000" points="554.38,200.82,545.5223,196.514,549.3829,200.6487,545.2482,204.5093,554.38,200.82" style="stroke:#000000;stroke-width:1.0;"/><!--MD5=[4edfcb15f14d2689dd380d576ce9bcd8]
link Dev to UC03--><path d="M60.9,852.76 C67.17,767.72 94.25,572.71 211,475 C259.86,434.1 320.27,408.42 382.67,392.77 " fill="none" id="Dev-to-UC03" style="stroke:#000000;stroke-width:1.0;"/><polygon fill="#000000" points="387.55,391.56,377.8533,389.8354,382.6959,392.7592,379.7721,397.6019,387.55,391.56" style="stroke:#000000;stroke-width:1.0;"/><!--MD5=[73811c78f98b3414f9ab5e645f1d1e17]
link Dev to UC04--><path d="M83.55,852.98 C109.93,812.58 155.61,752.23 211,719 C249.29,696.03 291.5,677.38 334.9,662.25 " fill="none" id="Dev-to-UC04" style="stroke:#000000;stroke-width:1.0;"/><polygon fill="#000000" points="339.65,660.61,329.838,659.7588,334.9225,662.2382,332.4431,667.3227,339.65,660.61" style="stroke:#000000;stroke-width:1.0;"/><!--MD5=[cd97047f1b974c03197c3c2d7583cd21]
link Dev to UC05--><path d="M110.23,869.33 C139.17,856.45 176.37,841.62 211,833 C323.67,804.94 453.12,790.69 556.23,783.46 " fill="none" id="Dev-to-UC05" style="stroke:#000000;stroke-width:1.0;"/><polygon fill="#000000" points="561.43,783.1,552.1672,779.7533,556.4428,783.4573,552.7388,787.7328,561.43,783.1" style="stroke:#000000;stroke-width:1.0;"/><!--MD5=[baad476171aa4b18990754da87e035f4]
link Dev to UC06--><path d="M110.21,894 C199.53,894 388.47,894 536.94,894 " fill="none" id="Dev-to-UC06" style="stroke:#000000;stroke-width:1.0;"/><polygon fill="#000000" points="542.21,894,533.21,890,537.21,894,533.21,898,542.21,894" style="stroke:#000000;stroke-width:1.0;"/><!--MD5=[01a5098ab1d0d81d52ca00a29328bf2d]
link Dev to UC07--><path d="M110.3,918.12 C139.26,930.74 176.47,945.33 211,954 C317.74,980.79 439.46,996.05 539.61,1004.73 " fill="none" id="Dev-to-UC07" style="stroke:#000000;stroke-width:1.0;"/><polygon fill="#000000" points="544.67,1005.16,536.0456,1000.4039,539.6884,1004.7318,535.3605,1008.3745,544.67,1005.16" style="stroke:#000000;stroke-width:1.0;"/><!--MD5=[2ebddb04d3c9f5f0bd7522e3b5ca314f]
link UC07 to UC08--><path d="M950.18,1010.87 C1045,1003.54 1157.95,987.63 1255,954 C1371.46,913.64 1375.6,850.53 1492,810 C1588.32,776.46 1699.29,759.08 1795.86,750.21 " fill="none" id="UC07-to-UC08" style="stroke:#000000;stroke-width:1.0;stroke-dasharray:7.0,7.0;"/><polygon fill="#000000" points="1801.03,749.74,1791.7015,746.5809,1796.051,750.1978,1792.4341,754.5473,1801.03,749.74" style="stroke:#000000;stroke-width:1.0;"/><text fill="#000000" font-family="sans-serif" font-size="13" lengthAdjust="spacing" textLength="51" x="1348" y="857.0669">extends</text><!--MD5=[5c761ef509868fc6756a381d551b3dfd]
link UC07 to UC09--><path d="M949.49,1022.46 C1171.63,1029.52 1528.11,1040.84 1771.96,1048.58 " fill="none" id="UC07-to-UC09" style="stroke:#000000;stroke-width:1.0;stroke-dasharray:7.0,7.0;"/><polygon fill="#000000" points="1776.98,1048.74,1768.1101,1044.4593,1771.9825,1048.5829,1767.8588,1052.4553,1776.98,1048.74" style="stroke:#000000;stroke-width:1.0;"/><text fill="#000000" font-family="sans-serif" font-size="13" lengthAdjust="spacing" textLength="51" x="1348" y="1032.0669">extends</text><!--MD5=[a923cb3d861ed91c377f3297bb2d77ce]
link UC07 to UC10--><path d="M934.41,998.63 C1142.15,979.48 1479.61,948.38 1726.55,925.62 " fill="none" id="UC07-to-UC10" style="stroke:#000000;stroke-width:1.0;stroke-dasharray:7.0,7.0;"/><polygon fill="#000000" points="1731.64,925.15,1722.3124,921.9885,1726.6609,925.6065,1723.0428,929.9551,1731.64,925.15" style="stroke:#000000;stroke-width:1.0;"/><text fill="#000000" font-family="sans-serif" font-size="13" lengthAdjust="spacing" textLength="51" x="1348" y="952.0669">extends</text><!--MD5=[5daf67820b4faa2a4f81669ff05ad57f]
link UC07 to UC11--><path d="M933.07,1034.04 C1029.55,1044.45 1148.93,1059.05 1255,1077 C1361.33,1094.99 1385.92,1109.6 1492,1129 C1585.71,1146.14 1689.02,1162.05 1780.26,1175.1 " fill="none" id="UC07-to-UC11" style="stroke:#000000;stroke-width:1.0;stroke-dasharray:7.0,7.0;"/><polygon fill="#000000" points="1785.42,1175.83,1777.0846,1170.5839,1780.4714,1175.1149,1775.9404,1178.5017,1785.42,1175.83" style="stroke:#000000;stroke-width:1.0;"/><text fill="#000000" font-family="sans-serif" font-size="13" lengthAdjust="spacing" textLength="51" x="1348" y="1092.0669">extends</text><!--MD5=[93a28fb6fcec599cd6f864cdafbafa1b]
link UC07 to UC12--><path d="M930.89,996.96 C1034.94,995.69 1162.19,1010.94 1255,1077 C1331.11,1131.17 1273.62,1208.18 1347,1266 C1404.51,1311.31 1472.72,1343.76 1543.51,1366.88 " fill="none" id="UC07-to-UC12" style="stroke:#000000;stroke-width:1.0;stroke-dasharray:7.0,7.0;"/><polygon fill="#000000" points="1548.61,1368.52,1541.2651,1361.9585,1543.8497,1366.9904,1538.8178,1369.575,1548.61,1368.52" style="stroke:#000000;stroke-width:1.0;"/><text fill="#000000" font-family="sans-serif" font-size="13" lengthAdjust="spacing" textLength="51" x="1348" y="1262.0669">extends</text><!--MD5=[30cbd28b32960e2170d4790c231da7ab]
link Dev to UC13--><path d="M80.75,935.35 C105.88,978.58 151.54,1044.56 211,1077 C303.84,1127.66 419.09,1146.19 518.64,1151.11 " fill="none" id="Dev-to-UC13" style="stroke:#000000;stroke-width:1.0;"/><polygon fill="#000000" points="523.67,1151.34,514.8621,1146.9332,518.6752,1151.1117,514.4967,1154.9248,523.67,1151.34" style="stroke:#000000;stroke-width:1.0;"/><!--MD5=[df31a729803a8a644492b8162efff1d9]
link Dev to UC14--><path d="M65.97,935.17 C80,1004.06 118.57,1141.53 211,1207 C311.91,1278.48 451.51,1292.22 562.53,1288.89 " fill="none" id="Dev-to-UC14" style="stroke:#000000;stroke-width:1.0;"/><polygon fill="#000000" points="567.79,1288.72,558.6685,1285.0055,562.7925,1288.8775,558.9205,1293.0015,567.79,1288.72" style="stroke:#000000;stroke-width:1.0;"/><!--MD5=[eee79d3131584dbc0f71ffed8b97c901]
link Dev to UC15--><path d="M60.07,935.27 C64.76,1022.87 88.93,1227.57 211,1328 C263.53,1371.22 329.04,1397.18 395.98,1412.19 " fill="none" id="Dev-to-UC15" style="stroke:#000000;stroke-width:1.0;"/><polygon fill="#000000" points="401.21,1413.34,393.292,1407.4829,396.3291,1412.2553,391.5566,1415.2924,401.21,1413.34" style="stroke:#000000;stroke-width:1.0;"/><!--MD5=[901165f40959f6aff952005c627ca22d]
link UC14 to UC11--><path d="M942.78,1259.01 C1155.37,1249.29 1496.48,1233.7 1741.34,1222.51 " fill="none" id="UC14-to-UC11" style="stroke:#000000;stroke-width:1.0;stroke-dasharray:7.0,7.0;"/><polygon fill="#000000" points="1746.39,1222.28,1737.2167,1218.6952,1741.3952,1222.5083,1737.5821,1226.6868,1746.39,1222.28" style="stroke:#000000;stroke-width:1.0;"/><text fill="#000000" font-family="sans-serif" font-size="13" lengthAdjust="spacing" textLength="45" x="1351" y="1235.0669">include</text><!--MD5=[2625fffa67532a4e7b8d12fd44c62ff8]
link UC15 to UC12--><path d="M1089.84,1418 C1211.71,1418 1352.09,1418 1486.8,1418 " fill="none" id="UC15-to-UC12" style="stroke:#000000;stroke-width:1.0;stroke-dasharray:7.0,7.0;"/><polygon fill="#000000" points="1492,1418,1483,1414,1487,1418,1483,1422,1492,1418" style="stroke:#000000;stroke-width:1.0;"/><text fill="#000000" font-family="sans-serif" font-size="13" lengthAdjust="spacing" textLength="45" x="1351" y="1414.0669">include</text><!--MD5=[a7a54ae2fe6ac9359d154ccf10d379a2]
link Dev to UC16--><path d="M62.98,935.05 C76.01,1060.09 121.76,1432.32 211,1507 C326.81,1603.92 510.29,1598.37 628.91,1581.37 " fill="none" id="Dev-to-UC16" style="stroke:#000000;stroke-width:1.0;"/><polygon fill="#000000" points="634.15,1580.6,624.664,1577.9512,629.2031,1581.3271,625.8273,1585.8662,634.15,1580.6" style="stroke:#000000;stroke-width:1.0;"/><!--MD5=[d1223685795fc457f91d7efd4fb6b8f3]
@startuml

left to right direction
skinparam packageStyle rectangle

"Desenvolvedor" as Dev #white;line:grey;line.bold;text:black

package "Extensão (VS Code) - Covering" {
  "UC01 Abrir a aba no menu lateral do VS Code referente à extensão" as (UC01) #LightGray;line:black;text:black
  
  "UC02 Alternar a visualização do status de cada linha no editor" as (UC02) #LightGray;line:black;text:black
  "UC03 Alternar a visualização da porcentagem de cobertura entre total e em relação ao arquivo aberto" as (UC03) #LightGray;line:black;text:black
  "UC04 Alternar a visualização da porcentagem de cobertura entre somente para as linhas criadas e alteradas na branch atual e para todo o código" as (UC04) #LightGray;line:black;text:black
  
  "UC05 Solicitar geração do arquivo de configuração" as (UC05) #LightGray;line:black;text:black
  "UC06 Criar na raiz do projeto o arquivo de configuração" as (UC06) #LightGray;line:black;text:black
  "UC07 Editar o arquivo de configuração na raiz do projeto" as (UC07) #LightGray;line:black;text:black
  
  "UC08 Adicionar ao arquivo de configuração a branch de referência" as (UC08) #LightGray;line:black;text:black
  "UC09 Adicionar ao arquivo de configuração um valor mínimo de cobertura" as (UC09) #LightGray;line:black;text:black
  "UC10 Adicionar ao arquivo de configuração o caminho para o arquivo de relatório de cobertura" as (UC10) #LightGray;line:black;text:black
  "UC11 Adicionar ao arquivo de configuração um comando para execução dos testes" as (UC11) #LightGray;line:black;text:black
  "UC12 Adicionar ao arquivo de configuração um comando para execução dos testes em modo de recarregamento automático após edição de algum arquivo" as (UC12) #LightGray;line:black;text:black
  
  "UC13 Selecionar uma das linhas listadas como sem cobertura" as (UC13) #LightGray;line:black;text:black

  "UC14 Executar testes através da interface da extensão" as (UC14) #LightGray;line:black;text:black
  "UC15 Executar testes em modo de recarregamento automático através da interface da extensão" as (UC15) #LightGray;line:black;text:black

  "UC16 Recarregar os dados da extensão" as (UC16) #LightGray;line:black;text:black
}
 
Dev - - -> (UC01) #line:black

Dev - - -> (UC02) #line:black
Dev - - -> (UC03) #line:black
Dev - - -> (UC04) #line:black

Dev - - -> (UC05) #line:black
Dev - - -> (UC06) #line:black
Dev - - -> (UC07) #line:black

(UC07) ..down..> (UC08) #line:black : extends 
(UC07) ..down..> (UC09) #line:black : extends 
(UC07) ..down..> (UC10) #line:black : extends 
(UC07) ..down..> (UC11) #line:black : extends 
(UC07) ..down..> (UC12) #line:black : extends 
 
 
Dev - - -> (UC13) #line:black
 
Dev - - -> (UC14) #line:black
Dev - - -> (UC15) #line:black
(UC14) ..down..> (UC11) #line:black : include  
(UC15) ..down..> (UC12) #line:black : include 
 
Dev - - -> (UC16) #line:black
 
@enduml

PlantUML version 1.2022.0(Tue Jan 11 13:16:42 BRT 2022)
(GPL source distribution)
Java Runtime: OpenJDK Runtime Environment
JVM: OpenJDK 64-Bit Server VM
Default Encoding: UTF-8
Language: pt
Country: BR
--></g></svg>