<svg width="2500" height="2500" viewBox="0 0 16 17" fill="none" xmlns="http://www.w3.org/2000/svg">
<path fill-rule="evenodd" clip-rule="evenodd" d="M10.3796 5.84759L14.8586 14.619C15.0659 15.0337 15.0453 15.4277 14.7964 15.8009C14.5891 16.1326 14.2781 16.2986 13.8633 16.2986H2.16814C1.75341 16.2986 1.42163 16.1326 1.1728 15.8009C0.965446 15.4277 0.944699 15.0337 1.11059 14.619L5.71401 5.78538V1.11975H4.53205V0H11.4994V1.18196H10.3796V5.84759ZM6.83376 6.03421L6.70934 6.28304L3.97218 11.633L2.16814 15.1788H13.8633L12.0593 11.633L9.19768 6.09642V1.18196H6.83376V6.03421ZM6.61213 12.0776C6.70481 12.1032 6.7967 12.1159 6.88778 12.1159C6.96768 12.1159 7.05238 12.1032 7.14187 12.0776C7.23295 12.0504 7.31605 11.9993 7.39116 11.9242C7.46305 11.8538 7.52302 11.7567 7.57105 11.633C7.57426 11.6247 7.57742 11.6163 7.58052 11.6078C7.63006 11.4703 7.65483 11.2922 7.65483 11.0732V10.8168C7.65483 10.6697 7.64364 10.5427 7.62127 10.4356C7.5989 10.3286 7.56854 10.2375 7.53018 10.1624C7.49183 10.0873 7.44709 10.0273 7.39595 9.9826C7.34482 9.93626 7.29048 9.9003 7.23295 9.87473C7.17702 9.84916 7.1195 9.83239 7.06037 9.8244C7.00124 9.81481 6.94451 9.81001 6.89018 9.81001C6.83265 9.81001 6.77353 9.81481 6.7128 9.8244C6.65368 9.83398 6.59535 9.85156 6.53782 9.87713C6.48029 9.9027 6.42596 9.93865 6.37482 9.985C6.32369 10.0313 6.27814 10.0921 6.23819 10.1672C6.19984 10.2423 6.16948 10.3334 6.14711 10.4404C6.12473 10.5459 6.11355 10.6713 6.11355 10.8168V11.0732C6.11355 11.2954 6.13672 11.4751 6.18306 11.6126C6.18541 11.6194 6.18779 11.6262 6.1902 11.633C6.2355 11.759 6.29305 11.8577 6.36284 11.929C6.43794 12.0025 6.52104 12.052 6.61213 12.0776ZM8.77424 9.86035H8.34038L7.86823 11.633L7.23775 14H7.67401L8.30311 11.633L8.77424 9.86035ZM7.08882 11.633C7.0473 11.7009 6.98188 11.7348 6.89258 11.7348C6.79902 11.7348 6.72998 11.7009 6.68546 11.633C6.6798 11.6243 6.67453 11.6151 6.66966 11.6054C6.62811 11.5175 6.60733 11.3817 6.60733 11.1979V10.7329C6.60733 10.5475 6.62811 10.4109 6.66966 10.323C6.7128 10.2351 6.78711 10.1911 6.89258 10.1911C6.99325 10.1911 7.06357 10.2351 7.10352 10.323C7.14347 10.4109 7.16344 10.5475 7.16344 10.7329V11.1979C7.16344 11.3817 7.14347 11.5175 7.10352 11.6054C7.099 11.6151 7.09411 11.6243 7.08882 11.633ZM8.41708 12.2118C8.36914 12.3429 8.34517 12.5178 8.34517 12.7368V12.9933C8.34517 13.1419 8.35556 13.2713 8.37633 13.3816C8.3987 13.4902 8.42827 13.5829 8.46502 13.6596C8.50178 13.7363 8.54492 13.7994 8.59446 13.849C8.6456 13.8985 8.69913 13.9369 8.75506 13.964C8.81259 13.9912 8.87172 14.0096 8.93244 14.0192C8.99476 14.0304 9.05629 14.036 9.11701 14.036C9.16974 14.036 9.22567 14.0304 9.2848 14.0192C9.34393 14.0096 9.40146 13.9904 9.45739 13.9616C9.51491 13.9329 9.56925 13.8937 9.62038 13.8442C9.67152 13.7947 9.71626 13.7315 9.75462 13.6548C9.79457 13.5781 9.82573 13.4854 9.8481 13.3768C9.87207 13.2681 9.88406 13.1403 9.88406 12.9933V12.7368C9.88406 12.5898 9.87287 12.4627 9.8505 12.3556C9.82812 12.2486 9.79776 12.1575 9.75941 12.0824C9.72106 12.0073 9.67631 11.9474 9.62518 11.9026C9.57404 11.8563 9.51971 11.8203 9.46218 11.7947C9.40625 11.7692 9.34872 11.7524 9.28959 11.7444C9.23047 11.7348 9.17374 11.73 9.11941 11.73C9.03471 11.73 8.94682 11.742 8.85573 11.766C8.76465 11.7884 8.68075 11.8355 8.60405 11.9074C8.52894 11.9777 8.46662 12.0792 8.41708 12.2118ZM8.89888 13.5254C8.85733 13.4375 8.83656 13.3017 8.83656 13.1179V12.6529C8.83656 12.4675 8.85733 12.3309 8.89888 12.243C8.94203 12.1551 9.01634 12.1112 9.1218 12.1112C9.22248 12.1112 9.29279 12.1551 9.33274 12.243C9.37269 12.3309 9.39267 12.4675 9.39267 12.6529V13.1179C9.39267 13.3017 9.37269 13.4375 9.33274 13.5254C9.29279 13.6117 9.22248 13.6548 9.1218 13.6548C9.01634 13.6548 8.94203 13.6117 8.89888 13.5254Z" fill="white"/>
</svg>
